<?xml version="1.0" encoding="UTF-8"?>
<svg id="Layer_1" data-name="Layer 1" xmlns="http://www.w3.org/2000/svg" xmlns:xlink="http://www.w3.org/1999/xlink" viewBox="0 0 114.6 115.84">
  <defs>
    <style>
      .cls-1 {
        fill: url(#linear-gradient-2);
      }

      .cls-2 {
        fill: #fff;
      }

      .cls-3 {
        fill: url(#linear-gradient-4);
      }

      .cls-4 {
        opacity: .8;
      }

      .cls-5 {
        fill: url(#linear-gradient-3);
      }

      .cls-6 {
        fill: url(#linear-gradient);
      }

      .cls-7 {
        fill: #282973;
      }
    </style>
    <linearGradient id="linear-gradient" x1="35.31" y1="123.41" x2="88.01" y2="-7.02" gradientUnits="userSpaceOnUse">
      <stop offset="0" stop-color="#f1bf24"/>
      <stop offset=".29" stop-color="#f3c22d"/>
      <stop offset=".76" stop-color="#facd46"/>
      <stop offset="1" stop-color="#ffd456"/>
    </linearGradient>
    <linearGradient id="linear-gradient-2" x1="35.6" y1="122.64" x2="87.69" y2="-6.29" xlink:href="#linear-gradient"/>
    <linearGradient id="linear-gradient-3" x1="35.53" y1="122.88" x2="87.8" y2="-6.49" xlink:href="#linear-gradient"/>
    <linearGradient id="linear-gradient-4" x1="36" y1="121.67" x2="87.31" y2="-5.32" xlink:href="#linear-gradient"/>
  </defs>
  <polygon class="cls-7" points="39 114.27 77.54 58.97 61.54 58.93 84.94 1.55 42.65 65.05 60.38 65.05 39 114.27"/>
  <g>
    <path class="cls-6" d="M39.82,115.34c-.08,0-.17-.02-.24-.06l-1.74-.97c-.22-.12-.32-.4-.21-.64l20.46-47.12h-17.3c-.18,0-.35-.1-.44-.26-.09-.16-.08-.36.02-.51L83.69.72c.1-.14.25-.22.42-.22.08,0,.16.02.23.06l1.76.93c.23.12.33.39.23.63l-22.56,55.31,15.68.05c.19,0,.36.1.44.27.09.16.07.36-.03.52l-39.63,56.87c-.1.14-.25.21-.41.21Z"/>
    <path class="cls-7" d="M84.11,1l1.76.93-22.84,56,16.43.05-39.63,56.87-1.74-.97,20.77-47.82h-18.07L84.11,1M84.11,0c-.32,0-.64.16-.83.45l-43.32,65.05c-.2.31-.22.7-.05,1.03.17.33.51.53.88.53h16.54l-20.16,46.42c-.2.47-.02,1.02.43,1.27l1.74.97c.15.09.32.13.49.13.32,0,.63-.15.82-.43l39.63-56.87c.21-.31.24-.7.07-1.03-.17-.33-.51-.54-.88-.54l-14.94-.05L86.79,2.31c.19-.48,0-1.02-.46-1.26l-1.76-.93c-.15-.08-.31-.12-.47-.12h0Z"/>
  </g>
  <polygon class="cls-7" points="38.08 113.87 58.85 66.05 40.78 66.05 84.11 1 85.87 1.93 63.03 57.93 79.45 57.98 39.82 114.84 38.08 113.87"/>
  <polygon class="cls-1" points="39 114.27 77.54 58.97 61.54 58.93 84.94 1.55 42.65 65.05 60.38 65.05 39 114.27"/>
  <polygon class="cls-5" points="38.08 113.87 58.85 66.05 40.78 66.05 84.11 1 85.87 1.93 63.03 57.93 79.45 57.98 39.82 114.84 38.08 113.87"/>
  <g class="cls-4">
    <path class="cls-7" d="M37.53,112.65l18.59-42.8c.57-1.32-.39-2.79-1.83-2.79h-11.64c-1.59,0-2.55-1.78-1.66-3.1L82.78,1.2c.57-.85,1.69-1.14,2.6-.66l.16.09c.91.48,1.3,1.57.91,2.52l-20.82,51.05c-.53,1.31.43,2.75,1.84,2.75l10.08.03c1.61,0,2.55,1.82,1.63,3.14l-38.03,54.56c-.59.84-1.72,1.1-2.61.6l-.16-.09c-.9-.5-1.27-1.6-.86-2.54Z"/>
  </g>
  <path class="cls-3" d="M39.59,113.45l37.85-54.31c.05-.07,0-.16-.08-.16l-15.66-.05c-.07,0-.12-.07-.09-.14L84.56,2.5c.05-.11-.11-.2-.18-.09l-41.62,62.5c-.04.07,0,.16.08.16h17.38c.07,0,.12.07.09.14l-20.91,48.14c-.05.11.11.2.18.1Z"/>
  <g class="cls-4">
    <path class="cls-2" d="M1,70.28c-.55,0-1-.45-1-1v-25.29c0-.55.45-1,1-1h9.1c8.88,0,10.75,4.93,10.75,9.06,0,2.84-1.06,5.17-3.15,6.93-2.04,1.72-4.77,2.59-8.12,2.59h-1.77v7.71c0,.55-.45,1-1,1H1ZM9.09,55.25c3.21,0,3.64-1.51,3.64-2.99s-.43-2.9-3.64-2.9h-1.28v5.88h1.28Z"/>
    <path class="cls-2" d="M6.81,60.57v8.71H1v-25.29h9.1c6.5,0,9.75,2.69,9.75,8.06,0,2.54-.93,4.59-2.8,6.16-1.86,1.57-4.36,2.35-7.47,2.35h-2.77ZM6.81,48.36v7.88h2.28c3.09,0,4.64-1.33,4.64-3.99s-1.55-3.9-4.64-3.9h-2.28Z"/>
    <path class="cls-2" d="M27.91,70.28c-.55,0-1-.45-1-1v-25.29c0-.55.45-1,1-1h5.81c.55,0,1,.45,1,1v19.67h8.55c.55,0,1,.45,1,1v4.62c0,.55-.45,1-1,1h-15.36Z"/>
    <path class="cls-2" d="M43.27,69.28h-15.36v-25.29h5.81v20.67h9.55v4.62Z"/>
    <path class="cls-2" d="M66.16,70.28c-.35,0-.67-.18-.85-.48l-4.01-6.51c-.29-.48-.56-.9-.83-1.27-.24-.34-.48-.63-.72-.86-.2-.2-.41-.35-.61-.45-.17-.08-.36-.12-.56-.12h-.56v8.68c0,.55-.45,1-1,1h-5.81c-.55,0-1-.45-1-1v-25.29c0-.55.45-1,1-1h9.21c8.58,0,10.39,4.28,10.39,7.88,0,1-.16,1.94-.47,2.79-.32.85-.77,1.63-1.34,2.32-.57.68-1.27,1.27-2.07,1.76-.23.14-.47.27-.71.39.24.2.47.42.69.66.36.38.71.8,1.04,1.23.32.42.61.84.88,1.25l4.87,7.48c.2.31.22.7.04,1.02s-.51.52-.88.52h-6.67ZM59.53,54.3c.99,0,1.75-.26,2.32-.79.56-.52.83-1.16.83-1.93,0-1.15-.36-2.32-3.05-2.32h-1.63v5.04h1.52Z"/>
    <path class="cls-2" d="M72.83,69.28h-6.67l-4.01-6.51c-.3-.49-.59-.94-.86-1.32-.28-.39-.55-.72-.84-1-.28-.28-.58-.49-.88-.63s-.64-.22-1-.22h-1.56v9.68h-5.81v-25.29h9.21c6.26,0,9.39,2.29,9.39,6.88,0,.88-.14,1.7-.41,2.44-.28.75-.67,1.42-1.17,2.02-.5.6-1.11,1.12-1.83,1.55-.71.44-1.51.78-2.38,1.02v.07c.38.12.75.31,1.12.57.36.26.71.57,1.04.93.33.35.66.73.96,1.14.31.41.58.8.84,1.19l4.87,7.48ZM57.01,48.26v7.04h2.52c1.25,0,2.25-.35,3-1.06.77-.72,1.15-1.6,1.15-2.66,0-2.21-1.35-3.32-4.05-3.32h-2.63Z"/>
    <path class="cls-2" d="M80.25,70.28c-.55,0-1-.45-1-1v-25.29c0-.55.45-1,1-1h14.87c.55,0,1,.45,1,1v4.64c0,.55-.45,1-1,1h-8.06v3.63h7.43c.55,0,1,.45,1,1v4.62c0,.55-.45,1-1,1h-7.43v3.79h8.66c.55,0,1,.45,1,1v4.62c0,.55-.45,1-1,1h-15.46Z"/>
    <path class="cls-2" d="M95.72,69.28h-15.46v-25.29h14.87v4.64h-9.06v5.63h8.43v4.62h-8.43v5.79h9.66v4.62Z"/>
    <path class="cls-2" d="M103.48,70.28c-.55,0-1-.45-1-1v-4.41c0-.55.45-1,1-1h1.16v-14.48h-1.16c-.55,0-1-.45-1-1v-4.41c0-.55.45-1,1-1h10.12c.55,0,1,.45,1,1v4.41c0,.55-.45,1-1,1h-1.16v14.48h1.16c.55,0,1,.45,1,1v4.41c0,.55-.45,1-1,1h-10.12Z"/>
    <path class="cls-2" d="M113.6,43.99v4.41h-2.16v16.48h2.16v4.41h-10.12v-4.41h2.16v-16.48h-2.16v-4.41h10.12Z"/>
  </g>
  <g>
    <path class="cls-7" d="M6.81,60.57v8.71H1v-25.29h9.1c6.5,0,9.75,2.69,9.75,8.06,0,2.54-.93,4.59-2.8,6.16-1.86,1.57-4.36,2.35-7.47,2.35h-2.77ZM6.81,48.36v7.88h2.28c3.09,0,4.64-1.33,4.64-3.99s-1.55-3.9-4.64-3.9h-2.28Z"/>
    <path class="cls-7" d="M43.27,69.28h-15.36v-25.29h5.81v20.67h9.55v4.62Z"/>
    <path class="cls-7" d="M72.83,69.28h-6.67l-4.01-6.51c-.3-.49-.59-.94-.86-1.32-.28-.39-.55-.72-.84-1-.28-.28-.58-.49-.88-.63s-.64-.22-1-.22h-1.56v9.68h-5.81v-25.29h9.21c6.26,0,9.39,2.29,9.39,6.88,0,.88-.14,1.7-.41,2.44-.28.75-.67,1.42-1.17,2.02-.5.6-1.11,1.12-1.83,1.55-.71.44-1.51.78-2.38,1.02v.07c.38.12.75.31,1.12.57.36.26.71.57,1.04.93.33.35.66.73.96,1.14.31.41.58.8.84,1.19l4.87,7.48ZM57.01,48.26v7.04h2.52c1.25,0,2.25-.35,3-1.06.77-.72,1.15-1.6,1.15-2.66,0-2.21-1.35-3.32-4.05-3.32h-2.63Z"/>
    <path class="cls-7" d="M95.72,69.28h-15.46v-25.29h14.87v4.64h-9.06v5.63h8.43v4.62h-8.43v5.79h9.66v4.62Z"/>
    <path class="cls-7" d="M113.6,43.99v4.41h-2.16v16.48h2.16v4.41h-10.12v-4.41h2.16v-16.48h-2.16v-4.41h10.12Z"/>
  </g>
</svg>